{
  "accessors": [
    {
      "bufferView": 2,
      "componentType": 5126,
      "count": 23198,
      "max": [
        -3.0368685722351074,
        28.526500701904297,
        6.8077921867370605
      ],
      "min": [
        -14.683177947998047,
        -0.07598382979631424,
        -1.7054333686828613
      ],
      "type": "VEC3"
    },
    {
      "bufferView": 2,
      "byteOffset": 278376,
      "componentType": 5126,
      "count": 23198,
      "max": [
        0.9999540448188782,
        0.9999388456344604,
        0.9999746680259705
      ],
      "min": [
        -0.9999830722808838,
        -0.9999912977218628,
        -0.9999582767486572
      ],
      "type": "VEC3"
    },
    {
      "bufferView": 1,
      "componentType": 5126,
      "count": 23198,
      "max": [
        0.9980080127716064,
        0.9749670028686523
      ],
      "min": [
        0.0019920000340789557,
        0.0019460000330582261
      ],
      "type": "VEC2"
    },
    {
      "bufferView": 0,
      "componentType": 5125,
      "count": 123264,
      "type": "SCALAR"
    },
    {
      "bufferView": 2,
      "byteOffset": 556752,
      "componentType": 5126,
      "count": 12644,
      "max": [
        -7.552496910095215,
        25.953405380249023,
        5.511225700378418
      ],
      "min": [
        -9.054525375366211,
        25.175933837890625,
        4.533265113830566
      ],
      "type": "VEC3"
    },
    {
      "bufferView": 2,
      "byteOffset": 708480,
      "componentType": 5126,
      "count": 12644,
      "max": [
        0.9996394515037537,
        0.9999176263809204,
        0.999988853931427
      ],
      "min": [
        -0.9996403455734253,
        -0.9999181032180786,
        -0.9999887347221375
      ],
      "type": "VEC3"
    },
    {
      "bufferView": 1,
      "byteOffset": 185584,
      "componentType": 5126,
      "count": 12644,
      "max": [
        0.9722049832344055,
        0.9691219925880432
      ],
      "min": [
        0.02958199940621853,
        0.02433899976313114
      ],
      "type": "VEC2"
    },
    {
      "bufferView": 0,
      "byteOffset": 493056,
      "componentType": 5125,
      "count": 74880,
      "type": "SCALAR"
    },
    {
      "bufferView": 2,
      "byteOffset": 860208,
      "componentType": 5126,
      "count": 2860,
      "max": [
        -7.730269432067871,
        28.986665725708008,
        5.1181321144104
      ],
      "min": [
        -10.722037315368652,
        26.16584014892578,
        1.3778088092803955
      ],
      "type": "VEC3"
    },
    {
      "bufferView": 2,
      "byteOffset": 894528,
      "componentType": 5126,
      "count": 2860,
      "max": [
        0.9995087385177612,
        0.9997527599334717,
        0.9996062517166138
      ],
      "min": [
        -0.9976317882537842,
        -0.9812588691711426,
        -0.9989792108535767
      ],
      "type": "VEC3"
    },
    {
      "bufferView": 1,
      "byteOffset": 286736,
      "componentType": 5126,
      "count": 2860,
      "max": [
        0.9219930171966553,
        0.9819650053977966
      ],
      "min": [
        0.13800600171089172,
        0.03682100027799606
      ],
      "type": "VEC2"
    },
    {
      "bufferView": 0,
      "byteOffset": 792576,
      "componentType": 5125,
      "count": 16704,
      "type": "SCALAR"
    },
    {
      "bufferView": 2,
      "byteOffset": 928848,
      "componentType": 5126,
      "count": 4494,
      "max": [
        -7.035830497741699,
        25.153778076171875,
        5.218013763427734
      ],
      "min": [
        -9.790513038635254,
        23.52256202697754,
        3.7768502235412598
      ],
      "type": "VEC3"
    },
    {
      "bufferView": 2,
      "byteOffset": 982776,
      "componentType": 5126,
      "count": 4494,
      "max": [
        0.9994484782218933,
        0.9998853206634521,
        0.9996703267097473
      ],
      "min": [
        -0.9986558556556702,
        -0.999884843826294,
        -0.9999905228614807
      ],
      "type": "VEC3"
    },
    {
      "bufferView": 1,
      "byteOffset": 309616,
      "componentType": 5126,
      "count": 4494,
      "max": [
        0.9097070097923279,
        0.9980080127716064
      ],
      "min": [
        0.0018159999744966626,
        0.0019920000340789557
      ],
      "type": "VEC2"
    },
    {
      "bufferView": 0,
      "byteOffset": 859392,
      "componentType": 5125,
      "count": 25536,
      "type": "SCALAR"
    },
    {
      "bufferView": 2,
      "byteOffset": 1036704,
      "componentType": 5126,
      "count": 2298,
      "max": [
        -8.282699584960938,
        24.307064056396484,
        3.773975372314453
      ],
      "min": [
        -9.693562507629395,
        23.363283157348633,
        2.146094799041748
      ],
      "type": "VEC3"
    },
    {
      "bufferView": 2,
      "byteOffset": 1064280,
      "componentType": 5126,
      "count": 2298,
      "max": [
        0.9995946288108826,
        0.9999946355819702,
        0.9846534729003906
      ],
      "min": [
        -0.9993576407432556,
        -0.999987781047821,
        -0.9842385053634644
      ],
      "type": "VEC3"
    },
    {
      "bufferView": 1,
      "byteOffset": 345568,
      "componentType": 5126,
      "count": 2298,
      "max": [
        -0.06804899871349335,
        0.9379630088806152
      ],
      "min": [
        -0.9659799933433533,
        0.0790729969739914
      ],
      "type": "VEC2"
    },
    {
      "bufferView": 0,
      "byteOffset": 961536,
      "componentType": 5125,
      "count": 13056,
      "type": "SCALAR"
    }
  ],
  "asset": {
    "extras": {
      "author": "ElSalawwy (https://sketchfab.com/andressalazar264)",
      "license": "CC-BY-4.0 (http://creativecommons.org/licenses/by/4.0/)",
      "source": "https://sketchfab.com/3d-models/mr-meeseks-356fca081a514508bf8d344ec1515d3f",
      "title": "Mr Meeseks"
    },
    "generator": "Sketchfab-12.67.0",
    "version": "2.0"
  },
  "bufferViews": [
    {
      "buffer": 0,
      "byteLength": 1013760,
      "name": "floatBufferViews",
      "target": 34963
    },
    {
      "buffer": 0,
      "byteLength": 363952,
      "byteOffset": 1013760,
      "byteStride": 8,
      "name": "floatBufferViews",
      "target": 34962
    },
    {
      "buffer": 0,
      "byteLength": 1091856,
      "byteOffset": 1377712,
      "byteStride": 12,
      "name": "floatBufferViews",
      "target": 34962
    }
  ],
  "buffers": [
    {
      "byteLength": 2469568,
      "uri": "scene.bin"
    }
  ],
  "images": [
    {
      "uri": "textures/lambert6_baseColor.png"
    },
    {
      "uri": "textures/lambert6_metallicRoughness.png"
    },
    {
      "uri": "textures/lambert3_baseColor.png"
    },
    {
      "uri": "textures/lambert4_baseColor.png"
    },
    {
      "uri": "textures/lambert2_baseColor.png"
    },
    {
      "uri": "textures/lambert5_baseColor.png"
    }
  ],
  "materials": [
    {
      "doubleSided": true,
      "name": "lambert6",
      "occlusionTexture": {
        "index": 1
      },
      "pbrMetallicRoughness": {
        "baseColorTexture": {
          "index": 0
        },
        "metallicFactor": 0.0,
        "metallicRoughnessTexture": {
          "index": 1
        },
        "roughnessFactor": 0.5185247675853808
      }
    },
    {
      "doubleSided": true,
      "name": "lambert3",
      "pbrMetallicRoughness": {
        "baseColorTexture": {
          "index": 2
        },
        "metallicFactor": 0.0,
        "roughnessFactor": 0.3543600921754252
      }
    },
    {
      "doubleSided": true,
      "name": "lambert4",
      "pbrMetallicRoughness": {
        "baseColorTexture": {
          "index": 3
        },
        "metallicFactor": 0.0,
        "roughnessFactor": 0.6
      }
    },
    {
      "doubleSided": true,
      "name": "lambert2",
      "pbrMetallicRoughness": {
        "baseColorTexture": {
          "index": 4
        },
        "metallicFactor": 0.0
      }
    },
    {
      "doubleSided": true,
      "name": "lambert5",
      "pbrMetallicRoughness": {
        "baseColorTexture": {
          "index": 5
        },
        "metallicFactor": 0.0,
        "roughnessFactor": 0.3361195726854301
      }
    }
  ],
  "meshes": [
    {
      "name": "Cuerpo_lambert6_0",
      "primitives": [
        {
          "attributes": {
            "NORMAL": 1,
            "POSITION": 0,
            "TEXCOORD_0": 2
          },
          "indices": 3,
          "material": 0,
          "mode": 4
        }
      ]
    },
    {
      "name": "Cuerpo_lambert3_0",
      "primitives": [
        {
          "attributes": {
            "NORMAL": 5,
            "POSITION": 4,
            "TEXCOORD_0": 6
          },
          "indices": 7,
          "material": 1,
          "mode": 4
        }
      ]
    },
    {
      "name": "Cuerpo_lambert4_0",
      "primitives": [
        {
          "attributes": {
            "NORMAL": 9,
            "POSITION": 8,
            "TEXCOORD_0": 10
          },
          "indices": 11,
          "material": 2,
          "mode": 4
        }
      ]
    },
    {
      "name": "Cuerpo_lambert2_0",
      "primitives": [
        {
          "attributes": {
            "NORMAL": 13,
            "POSITION": 12,
            "TEXCOORD_0": 14
          },
          "indices": 15,
          "material": 3,
          "mode": 4
        }
      ]
    },
    {
      "name": "Cuerpo_lambert5_0",
      "primitives": [
        {
          "attributes": {
            "NORMAL": 17,
            "POSITION": 16,
            "TEXCOORD_0": 18
          },
          "indices": 19,
          "material": 4,
          "mode": 4
        }
      ]
    }
  ],
  "nodes": [
    {
      "children": [
        1
      ],
      "matrix": [
        1.0,
        0.0,
        0.0,
        0.0,
        0.0,
        2.220446049250313e-16,
        -1.0,
        0.0,
        0.0,
        1.0,
        2.220446049250313e-16,
        0.0,
        0.0,
        0.0,
        0.0,
        1.0
      ],
      "name": "Sketchfab_model"
    },
    {
      "children": [
        2
      ],
      "matrix": [
        1.0,
        0.0,
        0.0,
        0.0,
        0.0,
        0.0,
        1.0,
        0.0,
        0.0,
        -1.0,
        0.0,
        0.0,
        0.0,
        0.0,
        0.0,
        1.0
      ],
      "name": "96b5a5eede60496baaa10b8c5c9796ae.fbx"
    },
    {
      "children": [
        3
      ],
      "name": "RootNode"
    },
    {
      "children": [
        4,
        5,
        6,
        7,
        8
      ],
      "matrix": [
        1.0,
        0.0,
        0.0,
        0.0,
        0.0,
        1.0,
        0.0,
        0.0,
        0.0,
        0.0,
        1.0,
        0.0,
        8.860023498535156,
        -0.0003390139318071306,
        -2.5511794090270996,
        1.0
      ],
      "name": "Cuerpo"
    },
    {
      "mesh": 0,
      "name": "Cuerpo_lambert6_0"
    },
    {
      "mesh": 1,
      "name": "Cuerpo_lambert3_0"
    },
    {
      "mesh": 2,
      "name": "Cuerpo_lambert4_0"
    },
    {
      "mesh": 3,
      "name": "Cuerpo_lambert2_0"
    },
    {
      "mesh": 4,
      "name": "Cuerpo_lambert5_0"
    }
  ],
  "samplers": [
    {
      "magFilter": 9729,
      "minFilter": 9987,
      "wrapS": 10497,
      "wrapT": 10497
    }
  ],
  "scene": 0,
  "scenes": [
    {
      "name": "Sketchfab_Scene",
      "nodes": [
        0
      ]
    }
  ],
  "textures": [
    {
      "sampler": 0,
      "source": 0
    },
    {
      "sampler": 0,
      "source": 1
    },
    {
      "sampler": 0,
      "source": 2
    },
    {
      "sampler": 0,
      "source": 3
    },
    {
      "sampler": 0,
      "source": 4
    },
    {
      "sampler": 0,
      "source": 5
    }
  ]
}
